<svg xmlns="http://www.w3.org/2000/svg" width="192" height="192" viewBox="0 0 192 192">
  <rect width="192" height="192" rx="40" fill="#2E75B6"/>
  <!-- Settings cog representing admin operations -->
  <circle cx="96" cy="96" r="28" fill="none" stroke="white" stroke-width="10"/>
  <circle cx="96" cy="96" r="12" fill="white"/>
  <!-- Cog teeth -->
  <rect x="89" y="46" width="14" height="22" rx="7" fill="white"/>
  <rect x="89" y="124" width="14" height="22" rx="7" fill="white"/>
  <rect x="46" y="89" width="22" height="14" rx="7" fill="white"/>
  <rect x="124" y="89" width="22" height="14" rx="7" fill="white"/>
  <rect x="60" y="60" width="14" height="22" rx="7" fill="white" transform="rotate(45 67 71)"/>
  <rect x="118" y="110" width="14" height="22" rx="7" fill="white" transform="rotate(45 125 121)"/>
  <rect x="110" y="60" width="14" height="22" rx="7" fill="white" transform="rotate(-45 117 71)"/>
  <rect x="62" y="110" width="14" height="22" rx="7" fill="white" transform="rotate(-45 69 121)"/>
</svg>
